<svg width="33" height="41" viewBox="0 0 33 41" fill="none" xmlns="http://www.w3.org/2000/svg">
<path d="M24.5685 2.22012C24.9836 1.67571 25.4802 1.24148 26.0292 0.942745C26.5782 0.644014 27.1687 0.486772 27.7662 0.480196C28.3637 0.473619 28.9563 0.617839 29.5093 0.90444C30.0623 1.19104 30.5648 1.61428 30.9873 2.14947C31.4098 2.68466 31.7439 3.32108 31.9702 4.02159C32.1965 4.72209 32.3103 5.47267 32.3051 6.22951C32.2999 6.98635 32.1758 7.73431 31.94 8.42973C31.7041 9.12515 31.3613 9.75412 30.9315 10.2799L29.1473 12.54L22.7843 4.48017L24.5685 2.22012V2.22012ZM19.6027 8.51007L0.75 32.3902V40.45H7.113L25.968 16.5699L19.6005 8.51007H19.6027Z" fill="#18181B"/>
</svg>
