<svg width="28" height="36" viewBox="0 0 28 36" fill="none" xmlns="http://www.w3.org/2000/svg">
<path fill-rule="evenodd" clip-rule="evenodd" d="M1.13637 1.61475C1.56335 1.07634 2.14238 0.773881 2.74613 0.773881C3.34988 0.773881 3.92891 1.07634 4.35589 1.61475L14.1306 13.9441L23.9053 1.61475C24.1153 1.34045 24.3666 1.12166 24.6444 0.971141C24.9221 0.820625 25.2209 0.741398 25.5232 0.738085C25.8256 0.734771 26.1254 0.807436 26.4052 0.95184C26.685 1.09625 26.9392 1.3095 27.153 1.57915C27.3668 1.84881 27.5359 2.16947 27.6504 2.52242C27.7649 2.87538 27.8225 3.25355 27.8198 3.63489C27.8172 4.01623 27.7544 4.39309 27.6351 4.74348C27.5157 5.09387 27.3423 5.41077 27.1248 5.6757L17.3501 18.005L27.1248 30.3343C27.5396 30.876 27.7691 31.6015 27.7639 32.3545C27.7587 33.1075 27.5192 33.8278 27.0971 34.3603C26.6749 34.8928 26.1038 35.1948 25.5069 35.2014C24.9099 35.2079 24.3347 34.9184 23.9053 34.3953L14.1306 22.066L4.35589 34.3953C3.92647 34.9184 3.35132 35.2079 2.75433 35.2014C2.15733 35.1948 1.58626 34.8928 1.16411 34.3603C0.741951 33.8278 0.502492 33.1075 0.497305 32.3545C0.492117 31.6015 0.721616 30.876 1.13637 30.3343L10.9111 18.005L1.13637 5.6757C0.709519 5.13713 0.469727 4.40677 0.469727 3.64523C0.469727 2.88369 0.709519 2.15332 1.13637 1.61475V1.61475Z" fill="#18181B"/>
</svg>
